<?xml version="1.0" standalone="no"?>
<!DOCTYPE svg PUBLIC "-//W3C//DTD SVG 20010904//EN"
 "http://www.w3.org/TR/2001/REC-SVG-20010904/DTD/svg10.dtd">
<svg version="1.0" xmlns="http://www.w3.org/2000/svg"
 width="746.000000pt" height="746.000000pt" viewBox="0 0 746.000000 746.000000"
 preserveAspectRatio="xMidYMid meet">
<metadata>
Created by potrace 1.14, written by Peter Selinger 2001-2017
</metadata>
<g transform="translate(0.000000,746.000000) scale(0.100000,-0.100000)"
fill="#000000" stroke="none">
<path d="M5740 7014 c-30 -7 -124 -29 -209 -48 -85 -20 -157 -40 -161 -45 -3
-6 -5 -222 -3 -480 3 -377 1 -470 -10 -474 -7 -3 -49 13 -92 36 -44 22 -138
66 -210 97 l-130 58 -2 123 c-1 68 -2 218 -2 333 l-1 209 -32 -6 c-35 -6 -372
-84 -398 -92 -13 -4 -15 -35 -15 -215 1 -207 1 -210 -19 -205 -12 2 -55 11
-96 19 -41 9 -85 17 -97 20 -11 2 -42 8 -67 11 -44 7 -65 25 -28 25 9 0 33 4
52 10 l35 10 -2 131 c-1 72 -3 133 -5 135 -2 2 -42 -5 -88 -16 -393 -91 -659
-152 -679 -156 -12 -3 -53 -12 -90 -20 -36 -9 -73 -17 -81 -19 -120 -25 -216
-52 -265 -76 -32 -16 -73 -32 -90 -35 -16 -2 -79 -16 -140 -29 -124 -28 -129
-29 -120 -15 9 14 -6 13 -99 -10 -44 -10 -92 -21 -106 -24 -14 -2 -56 -12 -95
-21 -91 -22 -101 -24 -127 -30 -13 -2 -41 -9 -63 -15 -36 -9 -673 -156 -720
-166 -11 -2 -44 -9 -72 -15 l-52 -12 -1 -194 0 -195 -27 -21 c-62 -49 -193
-166 -268 -242 -443 -442 -755 -966 -923 -1550 -11 -38 -24 -83 -28 -100 -4
-16 -8 -34 -10 -40 -27 -111 -59 -277 -70 -370 -3 -22 -7 -49 -9 -61 -19 -90
-27 -582 -12 -744 18 -197 48 -369 98 -570 l39 -154 0 -379 c0 -373 0 -378 20
-372 11 3 32 9 47 11 16 3 68 14 118 25 49 10 94 19 100 19 5 0 30 -33 53 -73
83 -137 188 -294 256 -381 18 -22 -13 -44 364 251 133 105 257 201 274 214 17
13 74 58 127 99 53 42 123 96 156 122 l60 47 310 66 c171 36 360 77 420 90 61
13 121 26 135 29 14 2 48 10 75 16 28 6 61 14 75 16 14 3 52 11 85 19 33 7 62
12 65 10 3 -2 5 -162 5 -355 0 -193 2 -355 5 -359 3 -4 323 -7 713 -7 l707 1
1 35 c0 19 1 251 2 515 l2 480 63 13 63 14 -1 496 c-1 340 -5 502 -12 516 -16
30 -38 44 -79 51 l-37 6 0 900 c0 494 3 899 7 899 17 0 181 -73 276 -124 97
-51 264 -157 296 -188 8 -7 30 -25 50 -40 65 -48 199 -180 275 -269 173 -204
316 -459 399 -712 25 -75 45 -144 45 -151 0 -13 -17 -19 -125 -42 -5 -1 -35
-7 -65 -13 -58 -12 -131 -27 -165 -35 -40 -9 -303 -65 -379 -81 -137 -28 -215
-69 -258 -133 -14 -21 -16 -54 -16 -226 1 -111 5 -211 10 -224 4 -13 24 -30
45 -39 53 -22 137 -13 363 37 102 22 199 43 215 46 17 2 38 7 47 10 9 3 27 7
40 9 13 3 47 10 75 16 29 5 56 8 61 6 4 -3 7 -56 7 -118 0 -88 -3 -114 -15
-120 -8 -5 -114 -29 -235 -54 -247 -51 -324 -68 -440 -95 -44 -10 -99 -21
-122 -25 -24 -4 -44 -10 -44 -13 -5 -24 -3 -242 2 -242 3 0 131 27 285 60 153
33 288 62 299 64 11 3 54 12 95 21 41 9 86 19 100 21 14 3 62 13 108 23 45 10
82 16 82 14 0 -1 -12 -38 -26 -80 -55 -160 -166 -375 -270 -521 -52 -74 -54
-78 -35 -90 11 -8 105 -80 209 -160 104 -81 204 -158 222 -172 18 -14 50 -38
70 -55 50 -40 617 -477 636 -490 19 -12 36 7 143 165 142 210 222 353 317 570
30 69 59 134 64 145 54 116 171 537 196 703 3 20 9 65 15 99 5 34 12 97 15
140 3 43 7 80 9 82 5 5 112 30 158 37 20 3 50 9 65 13 l27 7 0 552 c1 323 -3
552 -8 552 -7 0 -184 -36 -308 -62 -9 -2 -22 31 -40 98 -44 168 -122 392 -181
524 -61 135 -155 318 -203 395 -197 319 -362 525 -610 765 -44 42 -98 92 -120
111 -22 19 -49 42 -60 52 -11 11 -74 60 -140 110 -66 49 -118 93 -116 96 3 3
24 18 47 32 23 15 54 43 69 63 l28 37 -1 272 c0 150 -1 404 -1 565 -1 160 -4
292 -8 291 -5 -1 -33 -7 -63 -15z m-2845 -3688 c0 -807 -2 -1471 -5 -1476 -3
-4 -178 -44 -390 -89 -212 -45 -392 -83 -400 -85 -13 -2 -15 49 -15 417 0 230
-3 423 -6 428 -5 8 -27 6 -129 -16 -26 -5 -131 -28 -140 -30 -21 -5 -128 -28
-140 -30 -13 -2 -15 -35 -15 -233 0 -127 -4 -227 -8 -223 -8 8 -76 200 -82
234 -2 9 -6 21 -9 25 -3 5 -8 24 -11 43 -3 19 -8 41 -10 49 -41 143 -61 461
-42 665 69 763 560 1436 1272 1746 61 26 114 47 120 45 6 -2 10 -512 10 -1470z
m2829 -321 l5 -60 -177 -38 c-97 -21 -186 -40 -197 -42 -11 -2 -60 -12 -110
-23 -49 -11 -104 -22 -120 -25 l-31 -6 -2 59 c-2 63 -1 64 60 75 13 3 34 7 48
10 14 3 34 7 45 9 11 3 85 19 165 36 80 18 156 34 170 36 14 3 50 11 80 18 30
7 56 12 57 11 1 0 4 -27 7 -60z"/>
<path d="M1189 733 c-3 -26 -4 -280 -1 -290 2 -7 17 -13 32 -13 15 0 30 6 32
13 2 6 4 58 3 114 -2 121 -10 121 120 -2 49 -47 94 -85 100 -85 5 0 55 43 110
94 55 52 102 90 105 86 3 -5 4 -56 4 -114 l-2 -106 34 0 c25 0 34 4 35 18 0 9
1 78 1 152 l1 135 -39 3 c-42 3 -43 2 -185 -134 -31 -30 -61 -54 -65 -54 -5 0
-54 43 -109 95 -90 85 -104 95 -137 95 -21 0 -38 -3 -39 -7z"/>
<path d="M1976 638 c-46 -57 -103 -127 -126 -155 l-42 -53 44 0 c38 1 47 6 73
38 l29 38 139 -1 140 -1 29 -37 c25 -31 36 -37 69 -37 21 0 39 3 39 6 0 4 -30
43 -68 88 -37 44 -92 111 -121 149 -48 58 -59 67 -88 67 -29 0 -41 -10 -117
-102z m156 -10 c20 -24 38 -46 38 -50 0 -5 -36 -8 -81 -8 l-80 0 38 50 c21 27
40 49 42 50 3 0 22 -19 43 -42z"/>
<path d="M2429 733 c-1 -5 -2 -74 -3 -156 l-1 -147 266 0 c326 0 304 -11 304
153 1 167 20 157 -305 157 -143 0 -260 -3 -261 -7z m485 -66 c14 -6 19 -136 6
-157 -8 -13 -405 -19 -418 -6 -4 4 -7 43 -7 86 l-1 79 56 3 c81 4 349 0 364
-5z"/>
<path d="M3060 585 l0 -155 35 0 35 0 0 60 0 60 189 0 188 0 27 -60 c26 -56
29 -60 61 -60 l35 0 -21 52 c-11 29 -21 55 -22 58 -1 3 8 15 21 28 30 30 32
118 2 150 -20 22 -26 22 -285 22 l-265 0 0 -155z m423 86 c75 -1 77 -2 77 -26
l0 -25 -215 0 -215 0 0 24 c0 13 5 26 10 28 6 2 67 2 138 1 70 -1 162 -2 205
-2z"/>
<path d="M3693 708 l2 -33 119 -2 c66 -2 122 -5 125 -8 3 -3 6 -42 6 -85 l1
-80 -31 -1 c-16 0 -73 -1 -125 -2 l-95 -2 -1 -32 0 -33 285 0 286 0 0 33 0 32
-110 2 c-61 1 -117 2 -126 2 -13 1 -16 15 -17 86 l-1 85 37 1 c20 0 76 1 125
0 48 0 88 4 88 10 1 5 2 16 2 24 0 8 -1 20 -2 25 -1 6 -103 10 -286 10 l-285
0 3 -32z"/>
<path d="M4350 720 c-18 -18 -20 -33 -20 -139 0 -113 1 -121 22 -135 19 -13
60 -16 253 -16 126 0 240 3 252 6 43 12 57 113 22 158 l-20 26 -160 0 -159 0
0 -35 0 -35 140 0 c118 0 142 -2 147 -16 3 -8 1 -20 -5 -26 -11 -11 -408 -15
-419 -4 -8 8 -8 154 0 162 3 3 116 6 252 6 l246 1 -3 31 -3 31 -262 3 c-252 2
-263 2 -283 -18z"/>
<path d="M5100 634 c-47 -59 -103 -127 -124 -153 l-39 -46 39 -3 c35 -3 43 1
74 35 l35 39 135 0 135 -1 35 -38 c31 -34 40 -38 74 -35 l39 3 -42 50 c-73 87
-79 94 -143 175 -57 73 -66 80 -98 80 -32 0 -41 -8 -120 -106z m164 -12 l39
-47 -41 -3 c-23 -2 -60 -2 -83 0 l-41 3 38 48 c20 26 39 47 43 46 3 0 24 -21
45 -47z"/>
<path d="M5540 605 c0 -190 -26 -175 306 -175 l265 0 -3 33 -3 32 -238 1
c-153 1 -243 6 -249 12 -7 7 -11 56 -11 121 l1 111 -34 0 -34 0 0 -135z"/>
</g>
</svg>
